<?xml version="1.0" encoding="utf-8"?>
<svg id="master-artboard" viewBox="0 0 800 600" version="1.1" xmlns="http://www.w3.org/2000/svg" x="0px" y="0px" width="800px" height="600px" enable-background="new 0 0 800 600">
<g transform="matrix(1, 0, 0, 1, 0, -1.4210854715202004e-14)">
			<path fill="#F7941E" d="M450,398.2c0,0-32.7-15.6-43.7-9.2s6.8,36.3,6.8,36.3l6.3-2.3l-5.1-23.6l27.1,16.7&#10;&#9;&#9;&#9;&#9;C441.4,416,454.8,411.1,450,398.2z"/>
			<path d="M 473.5 577.599976 A 57 5.6 0 0 1 416.5 583.199975 A 57 5.6 0 0 1 359.5 577.599976 A 57 5.6 0 0 1 416.5 571.999976 A 57 5.6 0 0 1 473.5 577.599976 Z" fill="#4AABBC"/>
			<g>
				<g>
					<path fill="#FABDBA" d="M265.5,254.9h9.8c1-18.6,18.6-29.4,18.6-29.4c14.7,3.9,21.5-2.3,21.5-2.3c26.4,12.4,40.6-7.7,40.6-7.7&#10;&#9;&#9;&#9;&#9;&#9;&#9;c22.9-0.2,28.1-25.7,28.1-25.7c24.5-12.1,9.9-42.7,9.9-42.7c11.8-22.5-14.6-41-14.6-41c-0.8-24.3-24.6-25.4-24.6-25.4&#10;&#9;&#9;&#9;&#9;&#9;&#9;c-14.6-30.1-43.9-20.1-43.9-20.1c-25.2-25.7-51.4-5.3-51.4-5.3c-30.5-11.4-40.7,6.7-40.7,6.7c-32-6.7-40.1,16.5-40.1,16.5&#10;&#9;&#9;&#9;&#9;&#9;&#9;c-31-5-42.6,35.3-42.6,35.3s-23,9-10.9,31.4c0,0-5.7,24.1,19.8,28.2c0,0,11.6,18.4,37.1,15.2c0,0,15.1,15.8,35,10.7&#10;&#9;&#9;&#9;&#9;&#9;&#9;c0,0,10.8,19.8,32.5,19.6C249.6,218.8,265.5,233.3,265.5,254.9z"/>
					<path fill="#F3736F" d="M399.1,163.9c-0.5-8.1-3.4-15-4.1-16.7c4.8-9.4,3.7-19.6-3.1-29.5c-4.5-6.6-10.1-10.9-11.6-12&#10;&#9;&#9;&#9;&#9;&#9;&#9;c-1-22.4-21.3-25.4-24.9-25.8c-8.9-17.9-22.9-21.7-33.2-21.7c-5.4,0-9.6,1.1-11,1.5c-8.5-8.5-18.1-12.9-28.4-12.9&#10;&#9;&#9;&#9;&#9;&#9;&#9;c-12.2,0-21.4,6.1-23.4,7.5c-6.6-2.4-12.9-3.7-18.5-3.7c-14.6,0-21,8.1-22.5,10.3c-3.7-0.7-7.3-1.1-10.6-1.1&#10;&#9;&#9;&#9;&#9;&#9;&#9;c-20.6,0-28.1,14.2-29.6,17.6c-1.6-0.2-3.1-0.3-4.7-0.3c-11.4,0-21.6,6.3-29.6,18.3c-5.3,8-7.9,15.8-8.5,17.7&#10;&#9;&#9;&#9;&#9;&#9;&#9;c-2,0.9-10.4,4.9-13.5,13.3c-2.1,5.6-1.3,12,2.4,18.8c-0.4,1.9-1.9,11.3,3.3,19.1c3.5,5.2,9.2,8.5,16.9,9.8&#10;&#9;&#9;&#9;&#9;&#9;&#9;c1.6,2.3,11.9,15.6,31.8,15.6c1.8,0,3.7-0.1,5.6-0.3c2,1.9,12.6,11.7,27.4,11.7c2.5,0,5.1-0.3,7.6-0.9c2,3.3,13,19.5,32.6,19.5&#10;&#9;&#9;&#9;&#9;&#9;&#9;c2,1.9,15.3,15.7,15.3,35.2c0,0.5,0.4,0.9,0.9,0.9h9.8c0.5,0,0.9-0.4,0.9-0.8c0.9-16.6,15.5-26.9,17.9-28.5&#10;&#9;&#9;&#9;&#9;&#9;&#9;c3.1,0.8,6.2,1.2,9,1.2c7.1,0,11.2-2.5,12.5-3.5c5.7,2.6,11.2,3.9,16.5,3.9c14.6,0,22.8-9.6,24.4-11.7&#10;&#9;&#9;&#9;&#9;&#9;&#9;c21.3-0.5,27.6-22.6,28.4-25.9C394.9,185.3,399.9,176.1,399.1,163.9z M353.3,79.9c-8.9,0.7-13.4,9.9-14.7,13.4&#10;&#9;&#9;&#9;&#9;&#9;&#9;c-5.7,0.2-10,2.8-11.5,3.8c-5.3-3-11.4-1.3-14.1-0.3c-0.2-3.8-1.4-14.2-9.5-16.2c-0.9-0.2-1.8-0.3-2.7-0.4&#10;&#9;&#9;&#9;&#9;&#9;&#9;c-0.2-3.6,0.2-14.4,10.3-18.7c0.4-0.1,4.8-1.6,10.9-1.6C331.7,59.9,344.8,63.4,353.3,79.9z M332.1,226.3&#10;&#9;&#9;&#9;&#9;&#9;&#9;c-5.2,0-10.7-1.3-16.3-3.9c-0.3-0.2-0.7-0.1-1,0.1c0,0-3.9,3.4-11.7,3.4c-2.8,0-5.8-0.4-9-1.3c-0.2-0.1-0.5,0-0.7,0.1&#10;&#9;&#9;&#9;&#9;&#9;&#9;c-0.7,0.4-17.5,10.9-19,29.3h-8.1c-0.4-17.4-10.8-30.2-14.7-34.4c10.1-1,19.5-10.1,21.8-12.6c2,1.3,8.1,4.9,15.2,4.9&#10;&#9;&#9;&#9;&#9;&#9;&#9;c4.2,0,8.8-1.3,13-5.1c2.7,0.8,14.9,3.8,19.1-6.3l-1.7-0.7c-4,9.8-16.8,5.3-17.3,5.2c-0.3-0.1-0.7,0-0.9,0.2&#10;&#9;&#9;&#9;&#9;&#9;&#9;c-11.7,11.1-26.3,0.4-26.9-0.1c-0.4-0.3-0.9-0.2-1.2,0.1c-0.1,0.1-11.5,12.7-22.9,12.7c-0.1,0-0.1,0-0.2,0v0c0,0,0,0,0,0&#10;&#9;&#9;&#9;&#9;&#9;&#9;l-0.3,0c-20,0-30.6-17.7-31.3-19.1c-2-6.7-1.8-12,0.6-15.9c2.7-4.4,7.3-5.3,7.4-5.3l-0.2-0.9l-0.2-0.9c-0.2,0-5.4,1.1-8.5,6.1&#10;&#9;&#9;&#9;&#9;&#9;&#9;c-2.5,4.1-2.9,9.7-1,16.5c-2.3,0.5-4.6,0.8-6.9,0.8c-12.2,0-21.7-7.2-25.1-10.2c13.6-2.4,18.3-15.8,19.3-19.4&#10;&#9;&#9;&#9;&#9;&#9;&#9;c2.5,0.5,9.7,1.6,15.7-1.9c3.6-2.1,6.2-5.4,7.6-9.9c3.6,3.3,15.9,12.1,33.1,2.1c1.6,1.8,6.7,6.9,14.1,7.7&#10;&#9;&#9;&#9;&#9;&#9;&#9;c5.2,0.6,10.4-1,15.5-4.8c0.4,0.7,0.9,1.4,1.4,2.1c6.8,8.7,17.4,3.4,21.1,1.1c0.3,3.3,2.1,10.4,11.1,11.7&#10;&#9;&#9;&#9;&#9;&#9;&#9;c0.8,0.1,1.5,0.2,2.2,0.2c9.9,0,12.8-10.5,12.8-10.6l-1.7-0.4c-0.1,0.4-2.9,10.6-13.1,9.1c-10.1-1.5-9.7-11.1-9.7-11.5&#10;&#9;&#9;&#9;&#9;&#9;&#9;c0-0.3-0.2-0.7-0.5-0.8c-0.3-0.2-0.7-0.1-1,0.1c-0.5,0.4-12.8,9.5-20,0.2c-7.3-9.5-0.3-19.7,0-20.2l-1.5-1&#10;&#9;&#9;&#9;&#9;&#9;&#9;c-0.1,0.1-6.4,9.2-2.2,18.6c-4.8,3.7-9.6,5.2-14.4,4.7c-6.5-0.7-11.2-5.2-12.8-7c8.1-6.6,5.4-18.6,4.6-21.6&#10;&#9;&#9;&#9;&#9;&#9;&#9;c2.4-1.6,10.7-7.8,8.3-17.3c-2.3-9.3-12.8-9.7-16.2-9.6c0.1-2.4,0.1-8.2-3.7-12.3c-2.9-3.2-7.3-4.6-13-4.3l0.1,1.8&#10;&#9;&#9;&#9;&#9;&#9;&#9;c5.2-0.3,9.1,1,11.6,3.7c4.2,4.6,3.2,11.8,3.1,11.9c0,0.3,0.1,0.6,0.2,0.8c0.2,0.2,0.5,0.3,0.7,0.3c0.5-0.1,13-1.4,15.4,8.2&#10;&#9;&#9;&#9;&#9;&#9;&#9;c2.4,9.7-7.6,15.4-8.1,15.7c-0.4,0.2-0.5,0.7-0.4,1.1c0,0.1,4.6,14.5-4.5,20.9c-19.6,11.8-32-1.9-32.5-2.5&#10;&#9;&#9;&#9;&#9;&#9;&#9;c-0.2-0.2-0.6-0.4-0.9-0.3c-0.3,0.1-0.6,0.3-0.7,0.6c-1.2,4.7-3.6,8.2-7.2,10.2c-6.6,3.8-15.1,1.6-15.2,1.6&#10;&#9;&#9;&#9;&#9;&#9;&#9;c-0.2-0.1-0.5,0-0.7,0.1c-0.2,0.1-0.4,0.3-0.4,0.6c0,0.2-4,17.7-19.9,19.2l0,0c0,0,0,0,0,0c-2,0.2-3.9,0.4-5.8,0.4&#10;&#9;&#9;&#9;&#9;&#9;&#9;c-20.7,0-30.4-15-30.5-15.1c-0.1-0.2-0.4-0.4-0.6-0.4c-7.4-1.2-12.8-4.3-16.1-9.1c-5.1-7.6-3.1-17.2-3-18&#10;&#9;&#9;&#9;&#9;&#9;&#9;c0.5-1.4,7.8-19.8,24.8-13.8c0.3,0.1,0.6,0,0.9-0.2c0.2-0.2,0.4-0.5,0.3-0.8c0-0.1-1.7-12.5,8.6-17.4&#10;&#9;&#9;&#9;&#9;&#9;&#9;c10.4-4.9,20.7,3.7,20.8,3.8c0,0,0.1,0.1,0.1,0.1l0,0c5.8,3.5,7.3,11.7,5,16.8c-0.1,0.3-0.1,0.7,0.2,1c0.2,0.3,0.6,0.3,1,0.2&#10;&#9;&#9;&#9;&#9;&#9;&#9;c0.1,0,7.6-2.8,12.9,0.2c2.6,1.5,4.2,4.2,4.9,8l1.8-0.3c-0.8-4.4-2.7-7.5-5.8-9.2c-4.4-2.5-9.8-1.6-12.6-0.8&#10;&#9;&#9;&#9;&#9;&#9;&#9;c1.6-5.7-0.1-13.2-5.7-17c0.8-2.3,4.2-10.8,13.2-11.8c10.3-1.2,15.2,8.9,15.4,9.3l1.6-0.8c-0.1-0.1-5.6-11.7-17.2-10.3&#10;&#9;&#9;&#9;&#9;&#9;&#9;c-9.4,1.1-13.3,9.3-14.5,12.5c-3-2.2-12.1-7.8-21.7-3.3c-9.4,4.4-9.9,14.2-9.8,17.8c-14.8-4.4-22.6,8.6-25,13.6&#10;&#9;&#9;&#9;&#9;&#9;&#9;c-2.8-5.8-3.3-11.2-1.6-16c3.2-8.6,12.8-12.4,12.8-12.5c0.3-0.1,0.5-0.3,0.5-0.6c0.1-0.4,10.4-35.1,36.5-35.1&#10;&#9;&#9;&#9;&#9;&#9;&#9;c1.3,0,2.7,0.1,4.1,0.3c-1.2,5-0.7,9.9,1.4,13.7c1.7,3.1,4.3,5.2,7.6,6l0.5-1.7c-2.8-0.8-5-2.5-6.5-5.2c-2-3.6-2.4-8.5-1-13.3&#10;&#9;&#9;&#9;&#9;&#9;&#9;c0.3-0.9,6.4-17.1,28.2-17.1c3.4,0,7,0.4,10.8,1.2c9,2.6,14.3,10.2,13.1,18.5l1.8,0.3c1.4-8.8-4-17-13.2-20.1&#10;&#9;&#9;&#9;&#9;&#9;&#9;c1.9-2.5,8.1-9.1,20.7-9.1c5.5,0,11.7,1.3,18.3,3.7c0.3,0.1,0.6,0.1,0.9-0.1c0.1-0.1,9.8-7.5,22.8-7.5c9.6,0,18.5,4,26.6,11.8&#10;&#9;&#9;&#9;&#9;&#9;&#9;c-9.8,5-10.3,16-10.2,19.8c-7.8,0.6-14.7,7.1-15,7.4l1.2,1.3c0.1-0.1,9.2-8.7,17.8-6.6c8.3,2.1,8.1,15.6,8.1,15.8&#10;&#9;&#9;&#9;&#9;&#9;&#9;c0,0.3,0.2,0.6,0.4,0.8c0.3,0.2,0.6,0.2,0.9,0c0.1,0,9.6-4.9,15.9,1.5c6.3,6.3-0.1,16.8-0.1,16.9l1.5,0.9&#10;&#9;&#9;&#9;&#9;&#9;&#9;c0.3-0.5,7.1-11.8-0.1-19.1c-0.4-0.4-0.7-0.7-1.1-1c1.8-1.1,5.9-3.2,11-3.1l0.1,0c0,0,0,0,0,0c1.3,0,2.7,0.2,4.1,0.6&#10;&#9;&#9;&#9;&#9;&#9;&#9;c8.6,2.4,7.6,12.7,7.5,13.1c0,0.3,0.1,0.6,0.3,0.8c0.2,0.2,0.6,0.2,0.9,0.1c0.1,0,7-2.7,11.7,2.7c4.7,5.3-0.1,13.9-0.1,14&#10;&#9;&#9;&#9;&#9;&#9;&#9;l1.6,0.9c0.2-0.4,5.5-9.8-0.1-16c-4.3-4.8-10-4.1-12.5-3.5c0-3.2-0.8-11.5-8.9-13.7c-1.4-0.4-2.7-0.6-3.9-0.7&#10;&#9;&#9;&#9;&#9;&#9;&#9;c1.5-3.7,5.8-11.7,13.9-11.7c0.1,0,0.2,0,0.3,0c1,0,23,1.4,23.8,24.5c0,0.3,0.2,0.5,0.4,0.7c0.3,0.2,25.6,18.3,14.3,39.8&#10;&#9;&#9;&#9;&#9;&#9;&#9;c0,0,0,0.1,0,0.1l0,0c-4.5,11-16,10.7-22.2,8.7c-1.9-2.6-4.8-4.2-8.8-5c-2-9.9-13.7-10.8-13.8-10.8l-0.1,1.8&#10;&#9;&#9;&#9;&#9;&#9;&#9;c0.5,0,13,1.1,12.4,12.8c-0.6,12-9.2,15.4-9.5,15.5c-0.3,0.1-0.5,0.4-0.6,0.7c-0.1,0.3,0,0.6,0.3,0.8c0.1,0.1,9.5,8.8,3.2,18.1&#10;&#9;&#9;&#9;&#9;&#9;&#9;c-6.3,9.4-18.1,5.4-18.6,5.3l-0.6,1.7c0.1,0,3,1,6.8,1c3.9,0,8.6-1,12.3-5c2,1.2,3.5,3.1,4.3,5.6c1.5,4.8,0.4,11.1-2.9,17.1&#10;&#9;&#9;&#9;&#9;&#9;&#9;C354.7,215.8,346.7,226.3,332.1,226.3z M357.5,214.5c3-6,3.8-12.3,2.4-17.1c-0.9-2.8-2.5-5.1-4.8-6.5c0.1-0.2,0.3-0.4,0.4-0.6&#10;&#9;&#9;&#9;&#9;&#9;&#9;c5.9-8.7-0.2-16.8-2.6-19.5c2.7-1.4,9-6,9.5-16.5c0-0.7,0-1.3,0-2c3.5,0.8,6.1,2.4,7.6,4.9c3.1,5.1,0.8,12,0.8,12.1&#10;&#9;&#9;&#9;&#9;&#9;&#9;c-0.1,0.2-0.1,0.5,0.1,0.7c0.1,0.2,0.3,0.4,0.5,0.4c10.7,3.4,12.4,9.8,11.8,19.2C382.9,190.9,377.7,213.3,357.5,214.5z&#10;&#9;&#9;&#9;&#9;&#9;&#9; M385,188.3c0.4-9-1.8-15.7-12.3-19.3c0.5-2,1.4-7-0.5-11.4c1.7,0.4,3.7,0.7,5.7,0.7c5.8,0,12.3-2.1,16-9.1&#10;&#9;&#9;&#9;&#9;&#9;&#9;C396.4,155.8,403.4,178,385,188.3z"/>
				</g>
				<path fill="#FFFFFF" d="M105.5,192.1C87,247.2,64.4,279.9,53,291.3c-8.7,8.7,1.7,18.1,9.4,23.3c4.1,2.8,6.5,7.5,6.5,12.5&#10;&#9;&#9;&#9;&#9;&#9;c-0.2,21.5-6.2,106,20.8,130.5c33.8,30.6,93.2-2.8,108.9,17.1c5.5,7,5.4,42.8,3.8,78.6h157.3c0.2-38.9,3.8-83.8,16.7-114.5&#10;&#9;&#9;&#9;&#9;&#9;c18.2-43.6,64.3-159.3,38.2-246.6H105.5z"/>
				<path d="M 336.099988 139 A 11.8 11.8 0 0 1 324.299988 150.8 A 11.8 11.8 0 0 1 312.499988 139 A 11.8 11.8 0 0 1 324.299988 127.2 A 11.8 11.8 0 0 1 336.099988 139 Z" fill="#183145"/>
				<g>
					<path fill="#E6E7E8" d="M637.1,435.9v73.5c0,11,8.9,19.8,19.8,19.8h73.5c11,0,19.8-8.9,19.8-19.8v-73.5&#10;&#9;&#9;&#9;&#9;&#9;&#9;c0-11-8.9-19.8-19.8-19.8H657C646,416,637.1,424.9,637.1,435.9z"/>
					<path fill="#FFFFFF" d="M628.9,435.9v73.5c0,11,8.9,19.8,19.8,19.8h73.5c11,0,19.8-8.9,19.8-19.8v-73.5&#10;&#9;&#9;&#9;&#9;&#9;&#9;c0-11-8.9-19.8-19.8-19.8h-73.5C637.8,416,628.9,424.9,628.9,435.9z"/>
					<path fill="#BCBEC0" d="M645.3,446.5v52.2c0,7.8,6.3,14.1,14.1,14.1h52.2c7.8,0,14.1-6.3,14.1-14.1v-52.2&#10;&#9;&#9;&#9;&#9;&#9;&#9;c0-7.8-6.3-14.1-14.1-14.1h-52.2C651.6,432.4,645.3,438.8,645.3,446.5z"/>
					<path fill="#A7A9AC" d="M651.7,498.7v-52.2c0-7.8,6.3-14.1,14.1-14.1h-6.4c-7.8,0-14.1,6.3-14.1,14.1v52.2&#10;&#9;&#9;&#9;&#9;&#9;&#9;c0,7.8,6.3,14.1,14.1,14.1h6.4C658,512.8,651.7,506.5,651.7,498.7z"/>
					<path fill="#D1D3D4" d="M676.7,453.2v37.9c0,5.5,4.4,9.9,9.9,9.9l0,0c5.5,0,9.9-4.4,9.9-9.9v-37.9c0-5.5-4.4-9.9-9.9-9.9l0,0&#10;&#9;&#9;&#9;&#9;&#9;&#9;C681.1,443.3,676.7,447.7,676.7,453.2z"/>
					<path d="M 694.499976 454.100006 A 7.9 7.9 0 0 1 686.599976 462.000006 A 7.9 7.9 0 0 1 678.699975 454.100006 A 7.9 7.9 0 0 1 686.599976 446.200006 A 7.9 7.9 0 0 1 694.499976 454.100006 Z" fill="#183145"/>
					<path d="M 694.499976 491.100006 A 7.9 7.9 0 0 1 686.599976 499.000006 A 7.9 7.9 0 0 1 678.699975 491.100006 A 7.9 7.9 0 0 1 686.599976 483.200006 A 7.9 7.9 0 0 1 694.499976 491.100006 Z" fill="#183145"/>
				</g>
				<g>
					<g>
						<g>
							<path fill="#D1D3D4" d="M679.6,447.1h-35.9v13.9h35.9c3.9,0,7-3.1,7-7v0C686.6,450.2,683.5,447.1,679.6,447.1z"/>
							<path fill="#D1D3D4" d="M679.6,484.1h-35.9v13.9h35.9c3.9,0,7-3.1,7-7v0C686.6,487.3,683.5,484.1,679.6,484.1z"/>
						</g>
						<path fill="#414042" d="M640.4,428.4h-32.5c-24.4,0-44.2,19.8-44.2,44.2l0,0c0,24.4,19.8,44.2,44.2,44.2h32.5&#10;&#9;&#9;&#9;&#9;&#9;&#9;&#9;c13.7,0,24.8-19.8,24.8-44.2C665.2,448.2,654.1,428.4,640.4,428.4z"/>
						<path fill="#414042" d="M570.9,456h-21.6v33.3h21.6c5.2,0,9.3-7.4,9.3-16.6C580.2,463.4,576,456,570.9,456z"/>
						<path d="M 558.599988 472.600006 A 9.3 16.6 0 0 1 549.299988 489.200006 A 9.3 16.6 0 0 1 539.999988 472.600006 A 9.3 16.6 0 0 1 549.299988 456.000006 A 9.3 16.6 0 0 1 558.599988 472.600006 Z" fill="#58595B"/>
						<path d="M 681.199988 450.899994 A 1.9 1.9 0 0 1 679.299988 452.799994 A 1.9 1.9 0 0 1 677.399988 450.899994 A 1.9 1.9 0 0 1 679.299988 448.999994 A 1.9 1.9 0 0 1 681.199988 450.899994 Z" fill="#FFFFFF"/>
						<path d="M 681.199988 488.100006 A 1.9 1.9 0 0 1 679.299988 490.000006 A 1.9 1.9 0 0 1 677.399988 488.100006 A 1.9 1.9 0 0 1 679.299988 486.200006 A 1.9 1.9 0 0 1 681.199988 488.100006 Z" fill="#FFFFFF"/>
					</g>
					<path fill="#F3736F" d="M552.4,471.6c-0.4-2.7-1.9-4.7-3.4-4.6l0,0c0,0,0,0-0.1,0c0,0,0,0,0,0c0,0,0,0,0,0&#10;&#9;&#9;&#9;&#9;&#9;&#9;c-2.3,0.3-73.3,7.9-114.2-34.1c-33.9-34.9-32.3-96.7-30.9-151.3c0.9-33.5,1.7-65.1-5.8-89c-14.6-46.6-53.8-58.9-72.5-58.9&#10;&#9;&#9;&#9;&#9;&#9;&#9;c-1.6,0-2.8,2.2-2.8,5s1.3,5,2.8,5c16.2,0,50.2,10.9,63,51.9c7,22.3,6.2,53.1,5.3,85.7c-1.5,56.5-3.1,120.6,33.7,158.5&#10;&#9;&#9;&#9;&#9;&#9;&#9;c32.1,33.1,80.2,37.9,105.6,37.9c10.3,0,16.9-0.8,17.1-0.8l0-0.1c0,0,0,0,0,0C551.8,476.7,552.7,474.3,552.4,471.6z"/>
				</g>
			</g>
			<g>
				<path fill="#FFFFFF" d="M383.7,562.3c0,0-2.3,4.9-4.9,7.1c-2.7,2.1,11.2,11.9,14.5,10.8c3.3-1.1-7.6-7.7-7.8-9.8&#10;&#9;&#9;&#9;&#9;&#9;c-0.2-2.1,1.5-5.8,1.5-5.8L383.7,562.3z"/>
				<path fill="#FFFFFF" d="M437.6,565.1c0,0,0.3,5.4-1.1,8.6c-1.4,3.1,15.5,5.3,17.8,2.9c2.4-2.4-10.3-3.3-11.5-5.1&#10;&#9;&#9;&#9;&#9;&#9;c-1.2-1.8-1.3-5.8-1.3-5.8L437.6,565.1z"/>
				<path fill="#183145" d="M399.5,453.2c0,0-5,9.1-5,21.4c0,12.3,3,30.8,2,39.4c-1.1,8.6-16,51.9-16,51.9l7,2.4&#10;&#9;&#9;&#9;&#9;&#9;c0,0,21.3-28.1,29-51.4c7.7-23.3,10.8-62,10.8-62L399.5,453.2z"/>
				<path fill="#183145" d="M438.9,454.9c0,0,8,27.6,9,52.6s-4.5,60.8-4.5,60.8h-7.8c0,0-5.2-46.2-8.2-57.6&#10;&#9;&#9;&#9;&#9;&#9;c-3-11.3-22.5-34.2-20.5-57.6L438.9,454.9z"/>
			</g>
			<g>
				<path fill="#FBBCA1" d="M465.4,383.7c5.9-2.7,13.3-0.5,14,8.6c0.7,9.1-6.4,19-10.2,18.1c-5.8-1.4-9.7-7.2-11.3-13.9&#10;&#9;&#9;&#9;&#9;&#9;C456.5,390.2,461.4,385.5,465.4,383.7z"/>
				<path fill="#183145" d="M480.2,386.9c1.9,4.4,0.6,12.7-9.2,14.8c0,0-3,8.1-10.3,5.8c-7.3-2.3-3-5.4-4-13.1&#10;&#9;&#9;&#9;&#9;&#9;c-1-7.7,3.6-15,12-14.7c8.4,0.3,15.7,3.4,15.6,6.4C484.3,389.1,480.2,386.9,480.2,386.9z"/>
			</g>
			<path fill="#FFDE17" d="M399.5,453.2c0,0,5.3-28.9,26.4-48.9c9.7-9.2,25-9.2,34.8,0l3.4,3.2c6.7,6.2,6.3,16.9-0.8,22.6&#10;&#9;&#9;&#9;&#9;c-7.4,5.9-16.5,14.2-24.6,24.9C438.9,454.9,424.8,462.2,399.5,453.2z"/>
			<path fill="#FFDE17" d="M468.7,415.8c0,0,7.6,24.7,14.5,32.3c6.9,7.6,25.4,21.8,25.4,21.8L507,474c0,0-27.8-10.5-37.6-21.5&#10;&#9;&#9;&#9;&#9;c-4.4-5-9.2-16.7-13-27.7C453.9,417.5,462.4,411.2,468.7,415.8L468.7,415.8z"/>
			<path fill="#FBBCA1" d="M508.6,469.8c0,0,2.2-1.3,5.1-1.5c2.9-0.3-2.5,3.1-2.5,3.1l6.4,5.8c0,0-6.6,2.8-10.5-3.2L508.6,469.8z"/>
		</g><path d="M 443.8999938964844 138.60000610351562 L 434 135.1999969482422 L 455.8999938964844 110.80000305175781 L 421 130.6999969482422 L 430.79998779296875 134.10000610351562 L 408.8999938964844 158.60000610351562 Z" fill="#FFDE17" transform="matrix(1, 0, 0, 1, 0, -2.1316282072803006e-14)"/><path d="M 332.6000061035156 67.9000015258789 L 322.29998779296875 68 L 334.79998779296875 37.599998474121094 L 308.3999938964844 68 L 318.79998779296875 68 L 306.20001220703125 98.30000305175781 Z" fill="#FFDE17" transform="matrix(1, 0, 0, 1, 0, -2.1316282072803006e-14)"/><path d="M 101.19999694824219 123.4000015258789 L 97.4000015258789 133.10000610351562 L 73.9000015258789 110.19999694824219 L 92.4000015258789 146 L 96.0999984741211 136.3000030517578 L 119.69999694824219 159.10000610351562 Z" fill="#FFDE17" transform="matrix(1, 0, 0, 1, 0, -2.1316282072803006e-14)"/><path d="M 216 58.900001525878906 L 209.6999969482422 67.0999984741211 L 193.3000030517578 38.70000076293945 L 201.3000030517578 78.19999694824219 L 207.60000610351562 69.9000015258789 L 224 98.30000305175781 Z" fill="#FFDE17" transform="matrix(1, 0, 0, 1, 0, -2.1316282072803006e-14)"/><g transform="matrix(1, 0, 0, 1, 0, -2.1316282072803006e-14)">
				<path fill="#414042" d="M174.1,255.4c-12.6,0-25.3-4.8-34.9-14.4l3.5-3.5c17.3,17.3,45.4,17.3,62.7,0l3.5,3.5&#10;&#9;&#9;&#9;&#9;&#9;C199.3,250.6,186.7,255.4,174.1,255.4z"/>
			</g><g transform="matrix(1, 0, 0, 1, 0, -2.842170943040401e-14)">
					<path d="M 171.600006 252.899994 H 176.600006 V 270.099995 H 171.600006 V 252.899994 Z" fill="#414042"/>
				</g><path d="M 184.5 255.600006 H 201.700001 V 260.600006 H 184.5 V 255.600006 Z" transform="matrix(0.34200000762939453, 0.9397000670433044, -0.9397000670433044, 0.34200000762939453, 369.5943908691406, -11.555000305175817)" fill="#414042"/><path d="M 201.199997 246 H 218.399998 V 251 H 201.199997 V 246 Z" transform="matrix(0.6428000330924988, 0.765999972820282, -0.765999972820282, 0.6428000330924988, 265.2799072265625, -71.89820098876956)" fill="#414042"/><path d="M 135.899994 239.899994 H 140.899994 V 257.099995 H 135.899994 V 239.899994 Z" transform="matrix(0.7658999562263489, 0.6428999900817871, -0.6428999900817871, 0.7658999562263489, 192.15870666503906, -30.82559967041019)" fill="#414042"/><path d="M 152.600006 249.5 H 157.600006 V 266.700001 H 152.600006 V 249.5 Z" transform="matrix(0.9398000836372375, 0.3418000042438507, -0.3418000042438507, 0.9398000836372375, 97.5823974609375, -37.46900177001956)" fill="#414042"/>
</svg>