<svg xmlns="http://www.w3.org/2000/svg" width="1146.666" height="857.212" viewBox="0 0 1146.666 857.212">
  <g id="Group_1" data-name="Group 1" transform="translate(-45.443 0.001)">
    <path id="Path_E" data-name="Path E" d="M1547.29,1148.774H1764.2a14.025,14.025,0,0,1,13.985,13.985h0a14.024,14.024,0,0,1-13.985,13.982h-62a14.027,14.027,0,0,0-13.985,13.985h0a14.026,14.026,0,0,0,13.985,13.984h39.933a14.024,14.024,0,0,1,13.983,13.985h0a14.023,14.023,0,0,1-13.983,13.982h-37.291a14.026,14.026,0,0,0-13.985,13.985h0a14.026,14.026,0,0,0,13.985,13.984H1764.2a14.025,14.025,0,0,1,13.985,13.985h0a14.024,14.024,0,0,1-13.985,13.982H1617.521a14.024,14.024,0,0,1-13.984-13.982h0a14.025,14.025,0,0,1,13.984-13.985h9.634a14.026,14.026,0,0,0,13.984-13.984h0a14.026,14.026,0,0,0-13.984-13.985H1526.78a14.023,14.023,0,0,1-13.982-13.982h0a14.023,14.023,0,0,1,13.982-13.985h63.4a14.026,14.026,0,0,0,13.984-13.984h0a14.026,14.026,0,0,0-13.984-13.985H1547.29a14.023,14.023,0,0,1-13.983-13.982h0A14.023,14.023,0,0,1,1547.29,1148.774Z" transform="translate(-586.074 -445.048)" fill="#18133a" fill-rule="evenodd"/>
    <path id="Path_D" data-name="Path D" d="M1675.776,0a14,14,0,0,1-11.632,6.249h-10.256A14.024,14.024,0,0,0,1639.9,20.232h0a14.024,14.024,0,0,0,13.983,13.985h64.949A14.025,14.025,0,0,1,1732.822,48.2h0a14.026,14.026,0,0,1-13.985,13.985h-46.9q.617,0,1.222.057a14.029,14.029,0,0,0-12.74,13.927h0a14.031,14.031,0,0,0,12.74,13.928c-.4.036-.811.056-1.222.056h26.083A14.025,14.025,0,0,1,1712,104.137h0a14.025,14.025,0,0,1-13.985,13.985H1551.339a14.026,14.026,0,0,1-13.985-13.985h0a14.025,14.025,0,0,1,13.985-13.984h67.124a14.024,14.024,0,0,0,13.982-13.985h0a14.024,14.024,0,0,0-13.982-13.984H1476.758A14.024,14.024,0,0,1,1462.773,48.2h0a14.024,14.024,0,0,1,13.985-13.984h74.582a14.024,14.024,0,0,0,13.982-13.985h0a14.024,14.024,0,0,0-13.982-13.984h-33.873A14,14,0,0,1,1505.832,0h169.944Z" transform="translate(-566.694)" fill="#18133a" fill-rule="evenodd"/>
    <path id="Path_C" data-name="Path C" d="M716.447,583.948h219.31A14.181,14.181,0,0,1,949.9,598.087h0a14.181,14.181,0,0,1-14.139,14.139H873.074a14.181,14.181,0,0,0-14.139,14.139h0A14.181,14.181,0,0,0,873.074,640.5H913.45a14.182,14.182,0,0,1,14.139,14.139h0a14.182,14.182,0,0,1-14.139,14.139h-37.7a14.18,14.18,0,0,0-14.139,14.137h0a14.181,14.181,0,0,0,14.139,14.139h60.012A14.182,14.182,0,0,1,949.9,711.2h0a14.182,14.182,0,0,1-14.139,14.139h-148.3A14.18,14.18,0,0,1,773.317,711.2h0a14.18,14.18,0,0,1,14.139-14.139H797.2a14.181,14.181,0,0,0,14.139-14.139h0A14.18,14.18,0,0,0,797.2,668.782H695.71a14.182,14.182,0,0,1-14.139-14.139h0A14.182,14.182,0,0,1,695.71,640.5h64.1a14.179,14.179,0,0,0,14.139-14.139h0a14.18,14.18,0,0,0-14.139-14.139H716.446a14.181,14.181,0,0,1-14.139-14.139h0A14.182,14.182,0,0,1,716.447,583.948Z" transform="translate(-264.048 -226.228)" fill="#18133a" fill-rule="evenodd"/>
    <path id="Path_B" data-name="Path B" d="M108.677,1171.046H325.586a14.027,14.027,0,0,1,13.985,13.985h0a14.026,14.026,0,0,1-13.985,13.984h-62A14.024,14.024,0,0,0,249.6,1213h0a14.023,14.023,0,0,0,13.983,13.984h39.933a14.026,14.026,0,0,1,13.984,13.985h0a14.026,14.026,0,0,1-13.984,13.984H266.23a14.025,14.025,0,0,0-13.985,13.983h0a14.025,14.025,0,0,0,13.985,13.984h59.356A14.026,14.026,0,0,1,339.57,1296.9h0a14.026,14.026,0,0,1-13.985,13.985H178.907a14.026,14.026,0,0,1-13.985-13.985h0a14.026,14.026,0,0,1,13.985-13.984h9.634a14.025,14.025,0,0,0,13.985-13.984h0a14.024,14.024,0,0,0-13.985-13.983H88.167a14.026,14.026,0,0,1-13.985-13.984h0a14.026,14.026,0,0,1,13.985-13.985H151.56A14.025,14.025,0,0,0,165.545,1213h0a14.025,14.025,0,0,0-13.985-13.983H108.677a14.026,14.026,0,0,1-13.985-13.984h0A14.027,14.027,0,0,1,108.677,1171.046Z" transform="translate(-28.739 -453.676)" fill="#18133a" fill-rule="evenodd"/>
    <path id="Path_A" data-name="Path A" d="M118.633,200.883H335.542a14.024,14.024,0,0,1,13.983,13.985h0a14.024,14.024,0,0,1-13.983,13.984h-62a14.024,14.024,0,0,0-13.984,13.985h0a14.024,14.024,0,0,0,13.984,13.984h39.932A14.025,14.025,0,0,1,327.463,270.8h0a14.025,14.025,0,0,1-13.985,13.984H276.187A14.026,14.026,0,0,0,262.2,298.773h0a14.026,14.026,0,0,0,13.985,13.984h59.356a14.024,14.024,0,0,1,13.983,13.985h0a14.024,14.024,0,0,1-13.983,13.984H188.864a14.024,14.024,0,0,1-13.983-13.984h0a14.024,14.024,0,0,1,13.983-13.985H198.5a14.026,14.026,0,0,0,13.985-13.984h0A14.026,14.026,0,0,0,198.5,284.788H98.123A14.026,14.026,0,0,1,84.138,270.8h0A14.026,14.026,0,0,1,98.123,256.82h63.394A14.025,14.025,0,0,0,175.5,242.836h0a14.025,14.025,0,0,0-13.984-13.985H118.633a14.024,14.024,0,0,1-13.985-13.984h0A14.025,14.025,0,0,1,118.633,200.883Z" transform="translate(-32.596 -77.825)" fill="#18133a" fill-rule="evenodd"/>
  </g>
</svg>
