<svg xmlns="http://www.w3.org/2000/svg" width="858.318" height="542.242" viewBox="0 0 858.318 542.242">
  <g id="Layer_2" data-name="Layer 2" transform="translate(-262.682 -152.212)">
    <path id="Path_1804" data-name="Path 1804" d="M972.993,423.333A271,271,0,0,1,701.872,694.454q-10.917,0-21.638-.848A271.253,271.253,0,0,1,458.66,303.387C502.921,213.821,595.2,152.212,701.872,152.212A270.805,270.805,0,0,1,950,313.924a269.7,269.7,0,0,1,22.413,91.607Q972.987,414.346,972.993,423.333Z" fill="#ed7c31"/>
    <path id="Path_1805" data-name="Path 1805" d="M755.071,564.033c-15.491,19.192-38.974,29.839-61.854,39.06-8.152,3.283-16.5,6.565-23.225,12.233s-11.618,14.286-10.475,23c1.6,12.184,13.709,19.979,19.192,30.97,3.824,7.648,3.947,16.217,1.525,24.307A271.085,271.085,0,0,1,469.3,562.742,980.489,980.489,0,0,0,658.878,498.6c16.364-7.487,32.876-15.528,50.7-17.95s37.683,1.783,49.473,15.38C775.222,514.67,770.562,544.841,755.071,564.033Z" fill="#b55232"/>
    <g id="Group_6" data-name="Group 6">
      <path id="Path_1806" data-name="Path 1806" d="M1082.848,339.6h0c-5.587-21.011-23.91-35.968-54.459-44.454-23.089-6.416-53.736-9.355-91.093-8.738-.449.007-.908.022-1.359.03A269.738,269.738,0,0,1,958.5,335.664c55.806,1.43,74.48,12.829,76.789,16.588-.156,5.056-13.99,29.532-81.9,65.908-60.892,32.619-144.157,63.808-234.456,87.822s-178.057,38.307-247.108,40.246c-77.011,2.166-101.17-12.208-103.818-16.519.145-4.665,11.935-25.864,67.1-57.69a272.7,272.7,0,0,1-4.366-48.686c0-1.694.033-3.38.064-5.066-3.549,1.869-7.046,3.743-10.461,5.624-32.727,18.021-57.866,35.8-74.719,52.833-22.3,22.541-30.769,44.623-25.182,65.633s23.91,35.968,54.459,44.454c21.085,5.858,48.47,8.818,81.514,8.818q4.711,0,9.579-.081c73.908-1.22,168.224-16.15,265.573-42.039S918.2,493.725,982.948,458.07c32.726-18.021,57.865-35.8,74.718-52.833C1079.963,382.7,1088.436,360.614,1082.848,339.6Z" fill="#f6c785"/>
    </g>
    <path id="Path_1807" data-name="Path 1807" d="M941.888,316.284q-128.1,42.159-256.22,84.317c-11.815,3.885-24.073,7.831-36.441,6.528s-24.946-9.319-27.43-21.5c-2.053-10.119,3.332-20.594,11.1-27.393s17.606-10.671,27.233-14.4Q702.493,327.4,744.866,311c15.16-5.877,30.983-12.2,41.544-24.565s13.647-32.765,2.238-44.359c-7.795-7.93-20.139-9.7-31.106-7.856s-21.159,6.725-31.634,10.45c-10.241,3.627-21.466,6.172-31.892,3.111s-19.376-13.328-17.569-24.049c2.4-14.249,19.548-19.413,32.949-24.8,20.016-8.053,36.343-22.782,47.777-40.916.025-.05.062-.086.086-.136A271.535,271.535,0,0,1,950,313.924C947.211,314.624,944.482,315.436,941.888,316.284Z" fill="#d6562b"/>
    <path id="Path_1808" data-name="Path 1808" d="M942.871,496.622A253.618,253.618,0,0,0,966.034,484.6a268.781,268.781,0,0,1-27.945,71.9c-8.582,2.262-17.213,4.39-25.819,6.517-10.155,2.495-20.839,4.991-30.921,2.2s-18.958-12.835-16.573-23c2.1-8.963,11.348-14,19.671-17.938Q913.659,510.441,942.871,496.622Z" fill="#d6562b"/>
    <path id="Path_1809" data-name="Path 1809" d="M972.415,405.531c-8.028-.947-16.536.9-24.368,3.4-10.844,3.467-21.626,8.152-33.023,8.115s-23.827-6.529-26.126-17.68c-2.57-12.491,8.643-23.974,20.606-28.4,11.569-4.279,24.171-4.39,36.453-5.533a90.2,90.2,0,0,0,19.979-3.8A269.8,269.8,0,0,1,972.415,405.531Z" fill="#d6562b"/>
    <path id="Path_1810" data-name="Path 1810" d="M527.018,469.241q-41.7,18.461-83.394,36.9A272.125,272.125,0,0,1,458.66,303.387c39.527-19.782,96.562-45.146,110.27-23.815,14.348,22.34-8.643,54.38-31.179,68.408-13.192,8.213-29.027,11.827-41.359,21.282s-19.634,28.929-9.085,40.326c8.446,9.123,22.892,7.9,35.236,6.516s27.282-1.07,34.031,9.369c5.472,8.458,2.508,20.273-4.155,27.835S536.239,465.172,527.018,469.241Z" fill="#b55232"/>
    <g id="Group_7" data-name="Group 7">
      <path id="Path_1811" data-name="Path 1811" d="M551.08,295.969A377.039,377.039,0,0,1,608.8,271.161c5.973-2,3.412-11.5-2.615-9.484a392.7,392.7,0,0,0-60.068,25.8c-5.589,2.975-.626,11.468,4.965,8.493Z" fill="#7f2e19"/>
    </g>
    <g id="Group_8" data-name="Group 8">
      <path id="Path_1812" data-name="Path 1812" d="M636.711,259.815c6.328,0,6.339-9.836,0-9.836s-6.34,9.836,0,9.836Z" fill="#7f2e19"/>
    </g>
    <g id="Group_9" data-name="Group 9">
      <path id="Path_1813" data-name="Path 1813" d="M727.357,435.038l36.136-12.916c5.917-2.115,3.366-11.622-2.615-9.484l-36.135,12.916c-5.918,2.115-3.367,11.622,2.614,9.484Z" fill="#b55232"/>
    </g>
    <g id="Group_10" data-name="Group 10">
      <path id="Path_1814" data-name="Path 1814" d="M788.344,413.088c6.329,0,6.34-9.836,0-9.836s-6.339,9.836,0,9.836Z" fill="#b55232"/>
    </g>
    <g id="Group_11" data-name="Group 11">
      <path id="Path_1815" data-name="Path 1815" d="M638.93,654.388a116.128,116.128,0,0,0,38.694-15.078c5.387-3.3.452-11.814-4.965-8.493A108.334,108.334,0,0,1,636.315,644.9c-6.208,1.2-3.58,10.685,2.615,9.485Z" fill="#7f2e19"/>
    </g>
    <g id="Group_12" data-name="Group 12">
      <path id="Path_1816" data-name="Path 1816" d="M699.823,627.014c6.329,0,6.339-9.835,0-9.835s-6.339,9.835,0,9.835Z" fill="#182056"/>
    </g>
    <g id="Group_13" data-name="Group 13">
      <path id="Path_1817" data-name="Path 1817" d="M529.674,451.075l40.98-17.217c5.748-2.415,3.223-11.937-2.615-9.485l-40.98,17.218c-5.748,2.415-3.222,11.936,2.615,9.484Z" fill="#7f2e19"/>
    </g>
    <g id="Group_14" data-name="Group 14">
      <path id="Path_1818" data-name="Path 1818" d="M586.713,423.743c6.328,0,6.339-9.835,0-9.835s-6.34,9.835,0,9.835Z" fill="#7f2e19"/>
    </g>
    <g id="Group_15" data-name="Group 15">
      <path id="Path_1819" data-name="Path 1819" d="M843.217,611.257a120.107,120.107,0,0,1-29.132,11.014c-6.155,1.466-3.549,10.952,2.615,9.484a130.394,130.394,0,0,0,31.482-12.006c5.58-2.991.619-11.485-4.965-8.492Z" fill="#7f2e19"/>
    </g>
    <g id="Group_16" data-name="Group 16">
      <path id="Path_1820" data-name="Path 1820" d="M787.525,645.046c6.328,0,6.339-9.835,0-9.835s-6.34,9.835,0,9.835Z" fill="#182056"/>
    </g>
    <g id="Group_17" data-name="Group 17">
      <path id="Path_1821" data-name="Path 1821" d="M873.058,543.1,845.4,555.059c-6.519,2.818-.89,12.354,5.585,9.554l27.658-11.959c6.518-2.818.89-12.354-5.585-9.554Z" fill="#7f2e19"/>
    </g>
    <g id="Group_18" data-name="Group 18">
      <path id="Path_1822" data-name="Path 1822" d="M844.733,307.776l24.588-8.2c6.722-2.241,3.841-12.931-2.941-10.67l-24.589,8.2c-6.722,2.241-3.84,12.931,2.942,10.669Z" fill="#7f2e19"/>
    </g>
    <g id="Group_19" data-name="Group 19">
      <path id="Path_1823" data-name="Path 1823" d="M886.7,289.937c7.12,0,7.132-11.065,0-11.065s-7.131,11.065,0,11.065Z" fill="#7f2e19"/>
    </g>
    <g id="Group_20" data-name="Group 20">
      <path id="Path_1824" data-name="Path 1824" d="M820.31,231.742c7.12,0,7.132-11.065,0-11.065s-7.131,11.065,0,11.065Z" fill="#7f2e19"/>
    </g>
    <g id="Group_21" data-name="Group 21">
      <path id="Path_1825" data-name="Path 1825" d="M604.539,208.495l30.354-11.4c6.6-2.481,3.744-13.182-2.942-10.67l-30.354,11.4c-6.6,2.481-3.744,13.181,2.942,10.67Z" fill="#7f2e19"/>
    </g>
    <g id="Group_22" data-name="Group 22">
      <path id="Path_1826" data-name="Path 1826" d="M649.825,189.941c7.12,0,7.132-11.066,0-11.066s-7.132,11.066,0,11.066Z" fill="#7f2e19"/>
    </g>
    <g id="Group_23" data-name="Group 23">
      <path id="Path_1827" data-name="Path 1827" d="M583.793,498.614l65.679-23.467c5.918-2.115,3.367-11.622-2.614-9.485l-65.68,23.467c-5.918,2.115-3.367,11.622,2.615,9.485Z" fill="#7f2e19"/>
    </g>
    <g id="Group_24" data-name="Group 24">
      <path id="Path_1828" data-name="Path 1828" d="M673.595,464.725c6.328,0,6.339-9.835,0-9.835s-6.34,9.835,0,9.835Z" fill="#7f2e19"/>
    </g>
    <g id="Group_25" data-name="Group 25">
      <path id="Path_1829" data-name="Path 1829" d="M551.468,511.445c6.329,0,6.339-9.836,0-9.836s-6.339,9.836,0,9.836Z" fill="#7f2e19"/>
    </g>
    <g id="Group_26" data-name="Group 26">
      <path id="Path_1830" data-name="Path 1830" d="M733.428,233.177c4.747,0,4.755-7.377,0-7.377s-4.754,7.377,0,7.377Z" fill="#f4bb3a"/>
    </g>
    <g id="Group_27" data-name="Group 27">
      <path id="Path_1831" data-name="Path 1831" d="M689.987,365.958c4.747,0,4.755-7.376,0-7.376s-4.754,7.376,0,7.376Z" fill="#f4bb3a"/>
    </g>
    <g id="Group_28" data-name="Group 28">
      <path id="Path_1832" data-name="Path 1832" d="M699,380.712c4.747,0,4.755-7.377,0-7.377s-4.754,7.377,0,7.377Z" fill="#f4bb3a"/>
    </g>
    <g id="Group_29" data-name="Group 29">
      <path id="Path_1833" data-name="Path 1833" d="M704.741,368.417c4.747,0,4.754-7.376,0-7.376s-4.755,7.376,0,7.376Z" fill="#f4bb3a"/>
    </g>
    <g id="Group_30" data-name="Group 30">
      <path id="Path_1834" data-name="Path 1834" d="M471.963,446.283c4.746,0,4.754-7.376,0-7.376s-4.755,7.376,0,7.376Z" fill="#f4bb3a"/>
    </g>
    <g id="Group_31" data-name="Group 31">
      <path id="Path_1835" data-name="Path 1835" d="M467.865,461.856c4.746,0,4.754-7.376,0-7.376s-4.755,7.376,0,7.376Z" fill="#f4bb3a"/>
    </g>
    <g id="Group_32" data-name="Group 32">
      <path id="Path_1836" data-name="Path 1836" d="M484.257,461.856c4.747,0,4.755-7.376,0-7.376s-4.754,7.376,0,7.376Z" fill="#f4bb3a"/>
    </g>
    <g id="Group_33" data-name="Group 33">
      <path id="Path_1837" data-name="Path 1837" d="M475.241,347.926c4.747,0,4.755-7.376,0-7.376s-4.754,7.376,0,7.376Z" fill="#f4bb3a"/>
    </g>
    <g id="Group_34" data-name="Group 34">
      <path id="Path_1838" data-name="Path 1838" d="M486.058,309.271a52.134,52.134,0,0,0,16.454-6.109c4.115-2.364.4-8.74-3.723-6.369a46.059,46.059,0,0,1-14.692,5.365c-4.661.87-2.687,7.981,1.961,7.113Z" fill="#f4bb3a"/>
    </g>
    <g id="Group_35" data-name="Group 35">
      <path id="Path_1839" data-name="Path 1839" d="M795.845,344.765l11.5-5.69c4.255-2.106.522-8.47-3.723-6.37l-11.5,5.69c-4.255,2.106-.522,8.471,3.723,6.37Z" fill="#f4bb3a"/>
    </g>
    <g id="Group_36" data-name="Group 36">
      <path id="Path_1840" data-name="Path 1840" d="M854.22,436.112l17.11-8.4c4.261-2.094.527-8.458-3.723-6.37l-17.11,8.4c-4.26,2.093-.526,8.458,3.723,6.37Z" fill="#f4bb3a"/>
    </g>
    <g id="Group_37" data-name="Group 37">
      <path id="Path_1841" data-name="Path 1841" d="M917.028,397.925c4.747,0,4.754-7.377,0-7.377s-4.755,7.377,0,7.377Z" fill="#f4bb3a"/>
    </g>
    <g id="Group_38" data-name="Group 38">
      <path id="Path_1842" data-name="Path 1842" d="M927.683,380.712c4.747,0,4.755-7.377,0-7.377s-4.754,7.377,0,7.377Z" fill="#f4bb3a"/>
    </g>
    <g id="Group_39" data-name="Group 39">
      <path id="Path_1843" data-name="Path 1843" d="M744.9,205.309c4.747,0,4.755-7.377,0-7.377s-4.754,7.377,0,7.377Z" fill="#f4bb3a"/>
    </g>
    <g id="Group_40" data-name="Group 40">
      <path id="Path_1844" data-name="Path 1844" d="M599.827,619.228c4.746,0,4.754-7.377,0-7.377s-4.755,7.377,0,7.377Z" fill="#f4bb3a"/>
    </g>
    <g id="Group_41" data-name="Group 41">
      <path id="Path_1845" data-name="Path 1845" d="M598.188,637.26c4.746,0,4.754-7.377,0-7.377s-4.755,7.377,0,7.377Z" fill="#f4bb3a"/>
    </g>
    <g id="Group_42" data-name="Group 42">
      <path id="Path_1846" data-name="Path 1846" d="M612.941,626.6c4.747,0,4.755-7.376,0-7.376s-4.754,7.376,0,7.376Z" fill="#f4bb3a"/>
    </g>
    <g id="Group_43" data-name="Group 43">
      <path id="Path_1847" data-name="Path 1847" d="M748.182,456.939c4.746,0,4.754-7.377,0-7.377s-4.755,7.377,0,7.377Z" fill="#f4bb3a"/>
    </g>
    <g id="Group_44" data-name="Group 44">
      <path id="Path_1848" data-name="Path 1848" d="M760.476,467.594c4.747,0,4.755-7.377,0-7.377s-4.754,7.377,0,7.377Z" fill="#f4bb3a"/>
    </g>
    <g id="Group_45" data-name="Group 45">
      <path id="Path_1849" data-name="Path 1849" d="M767.853,452.84c4.747,0,4.755-7.376,0-7.376s-4.754,7.376,0,7.376Z" fill="#f4bb3a"/>
    </g>
    <g id="Group_46" data-name="Group 46">
      <path id="Path_1850" data-name="Path 1850" d="M745.723,624.145c4.747,0,4.754-7.376,0-7.376s-4.755,7.376,0,7.376Z" fill="#f4bb3a"/>
    </g>
    <g id="Group_47" data-name="Group 47">
      <path id="Path_1851" data-name="Path 1851" d="M741.625,639.719c4.746,0,4.754-7.377,0-7.377s-4.755,7.377,0,7.377Z" fill="#f4bb3a"/>
    </g>
    <g id="Group_48" data-name="Group 48">
      <path id="Path_1852" data-name="Path 1852" d="M758.837,632.342c4.747,0,4.755-7.377,0-7.377s-4.754,7.377,0,7.377Z" fill="#f4bb3a"/>
    </g>
    <g id="Group_49" data-name="Group 49">
      <path id="Path_1853" data-name="Path 1853" d="M591.63,232.357c4.747,0,4.755-7.377,0-7.377s-4.754,7.377,0,7.377Z" fill="#f4bb3a"/>
    </g>
    <g id="Group_50" data-name="Group 50">
      <path id="Path_1854" data-name="Path 1854" d="M604.745,239.734c4.746,0,4.754-7.377,0-7.377s-4.755,7.377,0,7.377Z" fill="#f4bb3a"/>
    </g>
    <g id="Group_51" data-name="Group 51">
      <path id="Path_1855" data-name="Path 1855" d="M609.663,227.439c4.746,0,4.754-7.377,0-7.377s-4.755,7.377,0,7.377Z" fill="#f4bb3a"/>
    </g>
    <g id="Group_52" data-name="Group 52">
      <path id="Path_1856" data-name="Path 1856" d="M357.213,411.654a1.846,1.846,0,0,0,0-3.689,1.846,1.846,0,0,0,0,3.689Z" fill="#11173e"/>
    </g>
    <g id="Group_53" data-name="Group 53">
      <path id="Path_1857" data-name="Path 1857" d="M309.674,432.349c4.747,0,4.754-7.376,0-7.376s-4.755,7.376,0,7.376Z" fill="#11173e"/>
    </g>
    <g id="Group_54" data-name="Group 54">
      <path id="Path_1858" data-name="Path 1858" d="M305.576,595.458c4.746,0,4.754-7.377,0-7.377s-4.755,7.377,0,7.377Z" fill="#11173e"/>
    </g>
    <g id="Group_55" data-name="Group 55">
      <path id="Path_1859" data-name="Path 1859" d="M431.8,523.33c4.747,0,4.755-7.377,0-7.377s-4.754,7.377,0,7.377Z" fill="#11173e"/>
    </g>
    <g id="Group_56" data-name="Group 56">
      <path id="Path_1860" data-name="Path 1860" d="M516.223,529.887c4.747,0,4.755-7.377,0-7.377s-4.754,7.377,0,7.377Z" fill="#11173e"/>
    </g>
    <g id="Group_57" data-name="Group 57">
      <path id="Path_1861" data-name="Path 1861" d="M564.582,622.506c4.747,0,4.755-7.377,0-7.377s-4.754,7.377,0,7.377Z" fill="#11173e"/>
    </g>
    <g id="Group_58" data-name="Group 58">
      <path id="Path_1862" data-name="Path 1862" d="M794.9,591.36c4.747,0,4.755-7.377,0-7.377s-4.754,7.377,0,7.377Z" fill="#11173e"/>
    </g>
    <g id="Group_59" data-name="Group 59">
      <path id="Path_1863" data-name="Path 1863" d="M805.557,456.939c4.746,0,4.754-7.377,0-7.377s-4.755,7.377,0,7.377Z" fill="#11173e"/>
    </g>
    <g id="Group_60" data-name="Group 60">
      <path id="Path_1864" data-name="Path 1864" d="M1034.237,465.955c4.746,0,4.754-7.377,0-7.377s-4.755,7.377,0,7.377Z" fill="#11173e"/>
    </g>
    <g id="Group_61" data-name="Group 61">
      <path id="Path_1865" data-name="Path 1865" d="M1000.631,364.319c4.747,0,4.755-7.377,0-7.377s-4.754,7.377,0,7.377Z" fill="#11173e"/>
    </g>
    <g id="Group_62" data-name="Group 62">
      <path id="Path_1866" data-name="Path 1866" d="M1058.826,274.159c4.747,0,4.754-7.377,0-7.377s-4.755,7.377,0,7.377Z" fill="#11173e"/>
    </g>
    <g id="Group_63" data-name="Group 63">
      <path id="Path_1867" data-name="Path 1867" d="M1116.2,354.484c4.746,0,4.754-7.377,0-7.377s-4.755,7.377,0,7.377Z" fill="#11173e"/>
    </g>
    <g id="Group_64" data-name="Group 64">
      <path id="Path_1868" data-name="Path 1868" d="M967.846,274.978c4.746,0,4.754-7.376,0-7.376s-4.755,7.376,0,7.376Z" fill="#11173e"/>
    </g>
    <g id="Group_65" data-name="Group 65">
      <path id="Path_1869" data-name="Path 1869" d="M434.589,666.866c4.746,0,4.754-7.377,0-7.377s-4.755,7.377,0,7.377Z" fill="#11173e"/>
    </g>
    <g id="Group_66" data-name="Group 66">
      <path id="Path_1870" data-name="Path 1870" d="M395.863,379.8c7.911,0,7.924-12.294,0-12.294s-7.924,12.294,0,12.294Z" fill="#11173e"/>
    </g>
    <g id="Group_67" data-name="Group 67">
      <path id="Path_1871" data-name="Path 1871" d="M268.62,531.017c7.911,0,7.924-12.294,0-12.294s-7.924,12.294,0,12.294Z" fill="#11173e"/>
    </g>
    <g id="Group_68" data-name="Group 68">
      <path id="Path_1872" data-name="Path 1872" d="M506.509,676.7c7.911,0,7.924-12.294,0-12.294s-7.924,12.294,0,12.294Z" fill="#11173e"/>
    </g>
    <g id="Group_69" data-name="Group 69">
      <path id="Path_1873" data-name="Path 1873" d="M729.645,591.873c7.911,0,7.924-12.295,0-12.295s-7.924,12.295,0,12.295Z" fill="#11173e"/>
    </g>
    <g id="Group_70" data-name="Group 70">
      <path id="Path_1874" data-name="Path 1874" d="M995.2,560.523c7.911,0,7.924-12.295,0-12.295s-7.924,12.295,0,12.295Z" fill="#11173e"/>
    </g>
    <g id="Group_71" data-name="Group 71">
      <path id="Path_1875" data-name="Path 1875" d="M1115.062,302.349c7.911,0,7.924-12.3,0-12.3s-7.924,12.3,0,12.3Z" fill="#11173e"/>
    </g>
    <g id="Group_72" data-name="Group 72">
      <path id="Path_1876" data-name="Path 1876" d="M1000.728,221.209c7.911,0,7.924-12.295,0-12.295s-7.925,12.295,0,12.295Z" fill="#11173e"/>
    </g>
    <g id="Group_73" data-name="Group 73">
      <path id="Path_1877" data-name="Path 1877" d="M906.678,549.458c7.911,0,7.925-12.294,0-12.294s-7.924,12.294,0,12.294Z" fill="#11173e"/>
    </g>
    <g id="Group_74" data-name="Group 74">
      <path id="Path_1878" data-name="Path 1878" d="M737.021,484.915c7.911,0,7.924-12.3,0-12.3s-7.924,12.3,0,12.3Z" fill="#11173e"/>
    </g>
    <g id="Group_75" data-name="Group 75">
      <path id="Path_1879" data-name="Path 1879" d="M831.07,602.937c7.911,0,7.924-12.294,0-12.294s-7.924,12.294,0,12.294Z" fill="#11173e"/>
    </g>
    <g id="Group_76" data-name="Group 76">
      <path id="Path_1880" data-name="Path 1880" d="M381.11,619.534c3.164,0,3.17-4.918,0-4.918s-3.17,4.918,0,4.918Z" fill="#11173e"/>
    </g>
    <g id="Group_77" data-name="Group 77">
      <path id="Path_1881" data-name="Path 1881" d="M460.406,619.534c3.165,0,3.17-4.918,0-4.918s-3.169,4.918,0,4.918Z" fill="#11173e"/>
    </g>
    <g id="Group_78" data-name="Group 78">
      <path id="Path_1882" data-name="Path 1882" d="M934.34,223.052c3.164,0,3.17-4.917,0-4.917s-3.17,4.917,0,4.917Z" fill="#11173e"/>
    </g>
    <g id="Group_79" data-name="Group 79">
      <path id="Path_1883" data-name="Path 1883" d="M1008.1,501.512c3.164,0,3.17-4.918,0-4.918s-3.17,4.918,0,4.918Z" fill="#11173e"/>
    </g>
    <g id="Group_80" data-name="Group 80">
      <path id="Path_1884" data-name="Path 1884" d="M888.237,595.561c3.165,0,3.17-4.918,0-4.918s-3.169,4.918,0,4.918Z" fill="#11173e"/>
    </g>
    <g id="Group_81" data-name="Group 81">
      <path id="Path_1885" data-name="Path 1885" d="M591.221,559.189a1.845,1.845,0,0,0,0-3.688,1.845,1.845,0,0,0,0,3.688Z" fill="#242c60"/>
    </g>
    <g id="Group_82" data-name="Group 82">
      <path id="Path_1886" data-name="Path 1886" d="M661.3,570.254c3.955,0,3.962-6.147,0-6.147s-3.962,6.147,0,6.147Z" fill="#242c60"/>
    </g>
    <g id="Group_83" data-name="Group 83">
      <path id="Path_1887" data-name="Path 1887" d="M393.277,497.716c3.956,0,3.962-6.148,0-6.148s-3.962,6.148,0,6.148Z" fill="#242c60"/>
    </g>
    <g id="Group_84" data-name="Group 84">
      <path id="Path_1888" data-name="Path 1888" d="M337.952,492.183c6.328,0,6.339-9.836,0-9.836s-6.34,9.836,0,9.836Z" fill="#242c60"/>
    </g>
    <g id="Group_85" data-name="Group 85">
      <path id="Path_1889" data-name="Path 1889" d="M406.8,595.458c6.329,0,6.34-9.836,0-9.836s-6.339,9.836,0,9.836Z" fill="#242c60"/>
    </g>
    <g id="Group_86" data-name="Group 86">
      <path id="Path_1890" data-name="Path 1890" d="M894.9,458.988c6.328,0,6.339-9.836,0-9.836s-6.34,9.836,0,9.836Z" fill="#242c60"/>
    </g>
    <g id="Group_87" data-name="Group 87">
      <path id="Path_1891" data-name="Path 1891" d="M1001.861,454.07c6.329,0,6.339-9.836,0-9.836s-6.34,9.836,0,9.836Z" fill="#242c60"/>
    </g>
    <g id="Group_88" data-name="Group 88">
      <path id="Path_1892" data-name="Path 1892" d="M1009.238,339.73c6.328,0,6.339-9.836,0-9.836s-6.34,9.836,0,9.836Z" fill="#242c60"/>
    </g>
    <g id="Group_89" data-name="Group 89">
      <path id="Path_1893" data-name="Path 1893" d="M1011.7,294.24c6.328,0,6.339-9.836,0-9.836s-6.34,9.836,0,9.836Z" fill="#242c60"/>
    </g>
    <g id="Group_90" data-name="Group 90">
      <path id="Path_1894" data-name="Path 1894" d="M395.736,433.169c6.329,0,6.34-9.836,0-9.836s-6.339,9.836,0,9.836Z" fill="#242c60"/>
    </g>
    <g id="Group_91" data-name="Group 91">
      <path id="Path_1895" data-name="Path 1895" d="M347.787,578.246c6.329,0,6.34-9.836,0-9.836s-6.339,9.836,0,9.836Z" fill="#242c60"/>
    </g>
    <g id="Group_92" data-name="Group 92">
      <path id="Path_1896" data-name="Path 1896" d="M839.572,494.642c6.329,0,6.339-9.836,0-9.836s-6.339,9.836,0,9.836Z" fill="#242c60"/>
    </g>
    <g id="Group_93" data-name="Group 93">
      <path id="Path_1897" data-name="Path 1897" d="M361.311,430.1c3.956,0,3.962-6.147,0-6.147s-3.962,6.147,0,6.147Z" fill="#242c60"/>
    </g>
    <g id="Group_94" data-name="Group 94">
      <path id="Path_1898" data-name="Path 1898" d="M355.164,538.288c3.956,0,3.962-6.147,0-6.147s-3.962,6.147,0,6.147Z" fill="#242c60"/>
    </g>
    <g id="Group_95" data-name="Group 95">
      <path id="Path_1899" data-name="Path 1899" d="M724,534.6c3.956,0,3.963-6.148,0-6.148s-3.962,6.148,0,6.148Z" fill="#242c60"/>
    </g>
    <g id="Group_96" data-name="Group 96">
      <path id="Path_1900" data-name="Path 1900" d="M957.6,453.455c3.956,0,3.962-6.147,0-6.147s-3.962,6.147,0,6.147Z" fill="#242c60"/>
    </g>
    <g id="Group_97" data-name="Group 97">
      <path id="Path_1901" data-name="Path 1901" d="M1060.875,352.639c3.956,0,3.962-6.147,0-6.147s-3.962,6.147,0,6.147Z" fill="#242c60"/>
    </g>
    <g id="Group_98" data-name="Group 98">
      <path id="Path_1902" data-name="Path 1902" d="M1055.957,400.588c3.956,0,3.962-6.147,0-6.147s-3.962,6.147,0,6.147Z" fill="#242c60"/>
    </g>
    <path id="Path_1903" data-name="Path 1903" d="M993.093,427.626a61.306,61.306,0,0,0,23.266-13.6" fill="none" stroke="#b29c88" stroke-miterlimit="10" stroke-width="1"/>
    <path id="Path_1904" data-name="Path 1904" d="M1025.667,407.333" fill="none" stroke="#b29c88" stroke-miterlimit="10" stroke-width="1"/>
    <path id="Path_1905" data-name="Path 1905" d="M362.825,502.906a101.586,101.586,0,0,1,22.706-30.387" fill="none" stroke="#b29c88" stroke-miterlimit="10" stroke-width="1"/>
    <path id="Path_1906" data-name="Path 1906" d="M401.667,461.333" fill="none" stroke="#b29c88" stroke-miterlimit="10" stroke-width="1"/>
    <path id="Path_1907" data-name="Path 1907" d="M413.667,452" fill="none" stroke="#b29c88" stroke-miterlimit="10" stroke-width="1"/>
    <path id="Path_1908" data-name="Path 1908" d="M461.679,575.836a218.411,218.411,0,0,0,68.666-5.787" fill="none" stroke="#b29c88" stroke-miterlimit="10" stroke-width="1"/>
    <path id="Path_1909" data-name="Path 1909" d="M549,568" fill="none" stroke="#b29c88" stroke-miterlimit="10" stroke-width="1"/>
    <path id="Path_1910" data-name="Path 1910" d="M969.008,305.833l19,.913" fill="none" stroke="#b29c88" stroke-miterlimit="10" stroke-width="1"/>
    <path id="Path_1911" data-name="Path 1911" d="M1008,311" fill="none" stroke="#b29c88" stroke-miterlimit="10" stroke-width="1"/>
  </g>
</svg>
